<svg width="24" height="24" viewBox="0 0 24 24" fill="none" xmlns="http://www.w3.org/2000/svg">
<path d="M15.9999 21.0001C15.3077 21.0001 14.631 20.7948 14.0554 20.4102C13.4799 20.0257 13.0313 19.479 12.7664 18.8395C12.5015 18.1999 12.4321 17.4962 12.5672 16.8173C12.7022 16.1383 13.0356 15.5147 13.5251 15.0252C14.0145 14.5357 14.6382 14.2024 15.3171 14.0673C15.9961 13.9323 16.6998 14.0016 17.3393 14.2665C17.9789 14.5314 18.5255 14.98 18.9101 15.5556C19.2947 16.1312 19.4999 16.8079 19.4999 17.5001C19.4999 18.4284 19.1312 19.3186 18.4748 19.975C17.8184 20.6313 16.9282 21.0001 15.9999 21.0001V21.0001ZM15.9999 16.0001C15.7033 16.0001 15.4133 16.0881 15.1666 16.2529C14.9199 16.4177 14.7276 16.652 14.6141 16.9261C14.5006 17.2002 14.4709 17.5018 14.5288 17.7927C14.5866 18.0837 14.7295 18.351 14.9393 18.5608C15.1491 18.7705 15.4163 18.9134 15.7073 18.9713C15.9983 19.0292 16.2999 18.9994 16.574 18.8859C16.8481 18.7724 17.0823 18.5801 17.2471 18.3335C17.412 18.0868 17.4999 17.7968 17.4999 17.5001C17.4999 17.1023 17.3419 16.7207 17.0606 16.4394C16.7793 16.1581 16.3978 16.0001 15.9999 16.0001ZM4.88894 20.0001C4.71308 20.0003 4.5411 19.9483 4.39483 19.8507C4.24855 19.7531 4.13455 19.6142 4.06728 19.4518C4.00002 19.2893 3.98251 19.1105 4.01699 18.938C4.05146 18.7656 4.13637 18.6072 4.26094 18.4831L18.4829 4.2611C18.5653 4.17834 18.6633 4.11268 18.7711 4.06787C18.879 4.02306 18.9946 4 19.1114 4C19.2282 4 19.3439 4.02306 19.4517 4.06787C19.5596 4.11268 19.6575 4.17834 19.7399 4.2611C19.9059 4.42819 19.999 4.65412 19.999 4.8896C19.999 5.12507 19.9059 5.351 19.7399 5.5181L5.51794 19.7401C5.43541 19.8228 5.33735 19.8883 5.2294 19.9329C5.12145 19.9775 5.00574 20.0004 4.88894 20.0001V20.0001ZM7.99994 11.0001C7.3077 11.0001 6.63101 10.7948 6.05544 10.4102C5.47987 10.0257 5.03127 9.47903 4.76636 8.83949C4.50145 8.19995 4.43214 7.49621 4.56719 6.81728C4.70224 6.13835 5.03558 5.51471 5.52506 5.02522C6.01455 4.53574 6.63819 4.2024 7.31712 4.06735C7.99605 3.9323 8.69979 4.00161 9.33933 4.26652C9.97887 4.53142 10.5255 4.98003 10.9101 5.5556C11.2947 6.13117 11.4999 6.80786 11.4999 7.5001C11.4999 8.42835 11.1312 9.31859 10.4748 9.97497C9.81843 10.6313 8.92819 11.0001 7.99994 11.0001V11.0001ZM7.99994 6.0001C7.70327 6.0001 7.41326 6.08807 7.16658 6.25289C6.91991 6.41771 6.72765 6.65198 6.61412 6.92607C6.50059 7.20016 6.47088 7.50176 6.52876 7.79273C6.58664 8.0837 6.7295 8.35098 6.93928 8.56076C7.14906 8.77053 7.41633 8.9134 7.7073 8.97127C7.99827 9.02915 8.29987 8.99945 8.57396 8.88591C8.84805 8.77238 9.08232 8.58012 9.24714 8.33345C9.41196 8.08678 9.49994 7.79677 9.49994 7.5001C9.49994 7.10227 9.3419 6.72074 9.0606 6.43944C8.77929 6.15813 8.39776 6.0001 7.99994 6.0001V6.0001Z" fill="#00e900" id="id_101"></path>
</svg>