<svg width="100%" height="100%" viewBox="0 0 24 24" version="1.1" xmlns="http://www.w3.org/2000/svg" xmlns:xlink="http://www.w3.org/1999/xlink" xml:space="preserve" xmlns:serif="http://www.serif.com/" style="fill-rule:evenodd;clip-rule:evenodd;stroke-linejoin:round;stroke-miterlimit:2;"><g id="Icon"><path d="M2,22.75l20,0c0.414,-0 0.75,-0.336 0.75,-0.75c-0,-0.414 -0.336,-0.75 -0.75,-0.75l-20,0c-0.414,-0 -0.75,0.336 -0.75,0.75c-0,0.414 0.336,0.75 0.75,0.75Z" id="id_101" style="fill:  #94a3b8;"></path><path d="M7.75,16.5c0,-0.332 -0.132,-0.649 -0.366,-0.884c-0.235,-0.234 -0.553,-0.366 -0.884,-0.366c-0.769,0 -2.231,0 -3,0c-0.331,-0 -0.649,0.132 -0.884,0.366c-0.234,0.235 -0.366,0.552 -0.366,0.884c0,1.441 0,5.5 0,5.5c0,0.414 0.336,0.75 0.75,0.75l4,0c0.414,0 0.75,-0.336 0.75,-0.75l-0,-5.5Zm-4,0.25l2.5,-0l0,4.5c0,-0 -2.5,0 -2.5,0l0,-4.5Z" id="id_102" style="fill:  #94a3b8;"></path><path d="M14.75,22l-0,-8.5c-0,-0.332 -0.132,-0.649 -0.366,-0.884c-0.235,-0.234 -0.553,-0.366 -0.884,-0.366c-0.769,0 -2.231,0 -3,0c-0.331,-0 -0.649,0.132 -0.884,0.366c-0.234,0.235 -0.366,0.552 -0.366,0.884l0,8.5c0,0.414 0.336,0.75 0.75,0.75l4,0c0.414,0 0.75,-0.336 0.75,-0.75Zm-4,-8.25l2.5,-0l0,7.5c0,-0 -2.5,0 -2.5,0l0,-7.5Z" id="id_103" style="fill:  #94a3b8;"></path><path d="M21.75,9.5c0,-0.332 -0.132,-0.649 -0.366,-0.884c-0.235,-0.234 -0.553,-0.366 -0.884,-0.366c-0.769,0 -2.231,0 -3,0c-0.331,-0 -0.649,0.132 -0.884,0.366c-0.234,0.235 -0.366,0.552 -0.366,0.884c0,2.386 0,12.5 0,12.5c0,0.414 0.336,0.75 0.75,0.75l4,0c0.414,0 0.75,-0.336 0.75,-0.75l-0,-12.5Zm-4,0.25l2.5,-0l0,11.5c0,-0 -2.5,0 -2.5,0l0,-11.5Z" id="id_104" style="fill: #94a3b8;"></path><path d="M18.181,2.389c-1.172,1.934 -4.513,4.058 -8.726,5.45c-1.842,0.61 -3.635,1.002 -5.251,1.181c-0.412,0.046 -0.709,0.417 -0.663,0.828c0.046,0.412 0.417,0.709 0.828,0.663c1.71,-0.19 3.608,-0.603 5.557,-1.247c4.636,-1.533 8.248,-3.97 9.537,-6.098c0.215,-0.354 0.102,-0.815 -0.252,-1.03c-0.354,-0.214 -0.816,-0.101 -1.03,0.253Z" id="id_105" style="fill:  #94a3b8;"></path><path d="M16.682,3.044l2.066,-0.219c0,-0 0.22,2.067 0.22,2.067c0.043,0.411 0.413,0.71 0.825,0.666c0.411,-0.043 0.71,-0.413 0.666,-0.825l-0.298,-2.812c-0.044,-0.412 -0.413,-0.711 -0.825,-0.667l-2.813,0.299c-0.411,0.043 -0.71,0.413 -0.666,0.825c0.043,0.411 0.413,0.71 0.825,0.666Z" id="id_106" style="fill:  #94a3b8;"></path></g></svg>